<svg width="192" height="216" viewBox="0 0 192 216" fill="none" xmlns="http://www.w3.org/2000/svg">
<path d="M189.546 54C188.043 51.39 185.964 49.113 183.678 47.79L104.334 1.98001C99.753 -0.665986 92.274 -0.665986 87.702 1.98001L8.34 47.79C3.768 50.427 0.0329971 56.907 0.0329971 62.19V153.81C0.0329971 156.456 0.968997 159.39 2.472 162C3.975 164.61 6.054 166.887 8.34 168.21L87.684 214.02C92.256 216.657 99.744 216.657 104.316 214.02L183.66 168.21C185.946 166.887 188.025 164.61 189.528 162C191.031 159.39 191.958 156.456 191.958 153.81V62.19C191.985 59.544 191.058 56.61 189.546 54ZM96 171.99C60.72 171.99 32.019 143.28 32.019 108C32.019 72.72 60.729 44.01 96.009 44.01C107.233 44.0313 118.256 46.9952 127.978 52.6061C137.699 58.2169 145.78 66.2786 151.413 75.987L123.729 92.007C120.914 87.1446 116.873 83.106 112.009 80.2948C107.144 77.4836 101.627 75.9982 96.009 75.987C87.5208 75.9942 79.3823 79.3692 73.3803 85.3713C67.3782 91.3734 64.0032 99.5118 63.996 108C64.0079 116.484 67.3839 124.616 73.3834 130.614C79.383 136.612 87.5165 139.985 96 139.995C101.616 139.983 107.131 138.499 111.994 135.691C116.858 132.884 120.901 128.85 123.72 123.993L151.422 140.013C145.786 149.723 137.702 157.785 127.977 163.396C118.253 169.007 107.227 171.97 96 171.99ZM159.99 111.555H152.88V118.665H145.77V111.555H138.66V104.445H145.77V97.335H152.88V104.445H159.99V111.555ZM186.648 111.555H179.538V118.665H172.428V111.555H165.318V104.445H172.428V97.335H179.538V104.445H186.648V111.555Z" fill="#FFCA66"/>
</svg>
