<svg width="200" height="184" viewBox="0 0 200 184" fill="none" xmlns="http://www.w3.org/2000/svg">
<path d="M193.076 25.1147H114.237V49.4383H132.432C135.78 49.4383 138.495 52.1628 138.495 55.5188C138.496 58.8756 135.779 61.6001 132.432 61.6001H114.237V73.7632H132.432C135.78 73.7632 138.495 76.4876 138.495 79.8415C138.496 83.1997 135.779 85.9237 132.432 85.9237H114.237V98.0855H132.432C135.78 98.0855 138.495 100.81 138.495 104.167C138.496 107.521 135.779 110.246 132.432 110.246H114.237V122.409H132.432C135.78 122.409 138.495 125.134 138.495 128.491C138.495 131.848 135.779 134.571 132.432 134.571H114.237V158.894H193.076C196.425 158.894 199.141 156.171 199.14 152.812V31.1951C199.14 27.8383 196.425 25.1147 193.076 25.1147ZM168.818 134.571H156.689C153.342 134.571 150.624 131.847 150.624 128.491C150.624 125.133 153.342 122.409 156.689 122.409H168.818C172.165 122.409 174.882 125.133 174.882 128.491C174.882 131.847 172.165 134.571 168.818 134.571ZM168.818 110.245H156.689C153.342 110.245 150.624 107.521 150.624 104.166C150.624 100.809 153.342 98.0851 156.689 98.0851H168.818C172.165 98.0851 174.882 100.809 174.882 104.166C174.882 107.521 172.165 110.245 168.818 110.245ZM168.818 85.9233H156.689C153.342 85.9233 150.624 83.1993 150.624 79.8411C150.624 76.4872 153.342 73.7627 156.689 73.7627H168.818C172.165 73.7627 174.882 76.4872 174.882 79.8411C174.882 83.1993 172.165 85.9233 168.818 85.9233ZM168.818 61.5992H156.689C153.342 61.5992 150.624 58.8748 150.624 55.5179C150.624 52.1619 153.342 49.4374 156.689 49.4374H168.818C172.165 49.4374 174.882 52.1619 174.882 55.5179C174.882 58.8752 172.165 61.5992 168.818 61.5992Z" fill="#FFCA66"/>
<path d="M107.825 2.18913C106.44 1.03404 104.585 0.534536 102.839 0.901146L5.8084 19.1422C2.93374 19.6801 0.859802 22.1843 0.859802 25.1147V158.894C0.859802 161.813 2.93374 164.329 5.8084 164.866L102.838 183.108C103.202 183.18 103.578 183.217 103.955 183.217C105.361 183.217 106.731 182.731 107.824 181.818C109.22 180.664 110.017 178.937 110.017 177.135V158.894V134.571V122.409V110.245V98.0851V85.9233V73.7623V61.5992V49.4379V25.1147V6.87363C110.017 5.06041 109.22 3.34507 107.825 2.18913ZM83.6895 120.9C82.5369 121.911 81.116 122.41 79.696 122.41C78.0119 122.41 76.3379 121.703 75.136 120.32L57.502 100.116L42.0365 120.061C40.8371 121.607 39.0534 122.408 37.2465 122.408C35.9501 122.408 34.6267 121.995 33.51 121.132C30.8792 119.066 30.3932 115.246 32.4557 112.593L49.3636 90.8002L32.6861 71.6821C30.4788 69.1635 30.734 65.321 33.256 63.1096C35.7548 60.8947 39.5883 61.1255 41.807 63.682L56.9439 81.022L74.9086 57.8657C76.9796 55.2277 80.7887 54.7408 83.4203 56.8093C86.052 58.8748 86.5401 62.6944 84.4779 65.3472L65.081 90.3521L84.2594 112.327C86.4654 114.845 86.2114 118.689 83.6895 120.9Z" fill="#FFCA66"/>
</svg>
