<svg width="171" height="246" viewBox="0 0 171 246" fill="none" xmlns="http://www.w3.org/2000/svg">
<g filter="url(#filter0_d_10_7)">
<g filter="url(#filter1_d_10_7)">
<path d="M157.943 0H100.686C95.7625 0 91.7714 3.99106 91.7714 8.91429V207.086C91.7714 212.009 95.7625 216 100.686 216H157.943C162.866 216 166.857 212.009 166.857 207.086V8.91429C166.857 3.99106 162.866 0 157.943 0Z" fill="url(#paint0_linear_10_7)"/>
</g>
<g filter="url(#filter2_d_10_7)">
<g filter="url(#filter3_d_10_7)">
<path d="M122.629 207.086V216H113.714H56.4571C51.5339 216 47.5429 212.009 47.5429 207.086V62.7429C47.5429 57.8196 51.5339 53.8286 56.4571 53.8286H113.714C118.638 53.8286 122.629 57.8196 122.629 62.7429V207.086Z" fill="black"/>
</g>
<path d="M122.629 207.086V216H113.714H56.4571C51.5339 216 47.5429 212.009 47.5429 207.086V62.7429C47.5429 57.8196 51.5339 53.8286 56.4571 53.8286H113.714C118.638 53.8286 122.629 57.8196 122.629 62.7429V207.086Z" fill="url(#paint1_linear_10_7)"/>
</g>
<g filter="url(#filter4_d_10_7)">
<path fill-rule="evenodd" clip-rule="evenodd" d="M79.0857 207.086V207.086C79.0857 212.009 75.0947 216 70.1714 216V216H12.9143C7.99106 216 4 212.009 4 207.086V116.914C4 111.991 7.99106 108 12.9143 108H70.1714C75.0947 108 79.0857 111.991 79.0857 116.914V207.086Z" fill="url(#paint2_linear_10_7)"/>
</g>
</g>
<defs>
<filter id="filter0_d_10_7" x="0" y="0" width="170.857" height="224" filterUnits="userSpaceOnUse" color-interpolation-filters="sRGB">
<feFlood flood-opacity="0" result="BackgroundImageFix"/>
<feColorMatrix in="SourceAlpha" type="matrix" values="0 0 0 0 0 0 0 0 0 0 0 0 0 0 0 0 0 0 127 0" result="hardAlpha"/>
<feOffset dy="4"/>
<feGaussianBlur stdDeviation="2"/>
<feComposite in2="hardAlpha" operator="out"/>
<feColorMatrix type="matrix" values="0 0 0 0 0 0 0 0 0 0 0 0 0 0 0 0 0 0 0.25 0"/>
<feBlend mode="normal" in2="BackgroundImageFix" result="effect1_dropShadow_10_7"/>
<feBlend mode="normal" in="SourceGraphic" in2="effect1_dropShadow_10_7" result="shape"/>
</filter>
<filter id="filter1_d_10_7" x="87.7714" y="0" width="83.0857" height="224" filterUnits="userSpaceOnUse" color-interpolation-filters="sRGB">
<feFlood flood-opacity="0" result="BackgroundImageFix"/>
<feColorMatrix in="SourceAlpha" type="matrix" values="0 0 0 0 0 0 0 0 0 0 0 0 0 0 0 0 0 0 127 0" result="hardAlpha"/>
<feOffset dy="4"/>
<feGaussianBlur stdDeviation="2"/>
<feComposite in2="hardAlpha" operator="out"/>
<feColorMatrix type="matrix" values="0 0 0 0 0 0 0 0 0 0 0 0 0 0 0 0 0 0 0.25 0"/>
<feBlend mode="normal" in2="BackgroundImageFix" result="effect1_dropShadow_10_7"/>
<feBlend mode="normal" in="SourceGraphic" in2="effect1_dropShadow_10_7" result="shape"/>
</filter>
<filter id="filter2_d_10_7" x="43.5429" y="53.8286" width="83.0857" height="170.171" filterUnits="userSpaceOnUse" color-interpolation-filters="sRGB">
<feFlood flood-opacity="0" result="BackgroundImageFix"/>
<feColorMatrix in="SourceAlpha" type="matrix" values="0 0 0 0 0 0 0 0 0 0 0 0 0 0 0 0 0 0 127 0" result="hardAlpha"/>
<feOffset dy="4"/>
<feGaussianBlur stdDeviation="2"/>
<feComposite in2="hardAlpha" operator="out"/>
<feColorMatrix type="matrix" values="0 0 0 0 0 0 0 0 0 0 0 0 0 0 0 0 0 0 0.25 0"/>
<feBlend mode="normal" in2="BackgroundImageFix" result="effect1_dropShadow_10_7"/>
<feBlend mode="normal" in="SourceGraphic" in2="effect1_dropShadow_10_7" result="shape"/>
</filter>
<filter id="filter3_d_10_7" x="47.5429" y="43.8286" width="115.086" height="202.171" filterUnits="userSpaceOnUse" color-interpolation-filters="sRGB">
<feFlood flood-opacity="0" result="BackgroundImageFix"/>
<feColorMatrix in="SourceAlpha" type="matrix" values="0 0 0 0 0 0 0 0 0 0 0 0 0 0 0 0 0 0 127 0" result="hardAlpha"/>
<feOffset dx="20" dy="10"/>
<feGaussianBlur stdDeviation="10"/>
<feColorMatrix type="matrix" values="0 0 0 0 0 0 0 0 0 0 0 0 0 0 0 0 0 0 0.0530212 0"/>
<feBlend mode="normal" in2="BackgroundImageFix" result="effect1_dropShadow_10_7"/>
<feBlend mode="normal" in="SourceGraphic" in2="effect1_dropShadow_10_7" result="shape"/>
</filter>
<filter id="filter4_d_10_7" x="0" y="108" width="83.0857" height="116" filterUnits="userSpaceOnUse" color-interpolation-filters="sRGB">
<feFlood flood-opacity="0" result="BackgroundImageFix"/>
<feColorMatrix in="SourceAlpha" type="matrix" values="0 0 0 0 0 0 0 0 0 0 0 0 0 0 0 0 0 0 127 0" result="hardAlpha"/>
<feOffset dy="4"/>
<feGaussianBlur stdDeviation="2"/>
<feComposite in2="hardAlpha" operator="out"/>
<feColorMatrix type="matrix" values="0 0 0 0 0 0 0 0 0 0 0 0 0 0 0 0 0 0 0.25 0"/>
<feBlend mode="normal" in2="BackgroundImageFix" result="effect1_dropShadow_10_7"/>
<feBlend mode="normal" in="SourceGraphic" in2="effect1_dropShadow_10_7" result="shape"/>
</filter>
<linearGradient id="paint0_linear_10_7" x1="3846.06" y1="0" x2="3846.06" y2="21600" gradientUnits="userSpaceOnUse">
<stop stop-color="#FFCA66"/>
<stop offset="1" stop-color="#FFCA66"/>
</linearGradient>
<linearGradient id="paint1_linear_10_7" x1="3801.83" y1="53.8286" x2="3801.83" y2="16271" gradientUnits="userSpaceOnUse">
<stop stop-color="#FFCA66"/>
<stop offset="0.485577" stop-color="#FFCA66" stop-opacity="0.4"/>
</linearGradient>
<linearGradient id="paint2_linear_10_7" x1="3758.29" y1="108" x2="3758.29" y2="10908" gradientUnits="userSpaceOnUse">
<stop stop-color="#FFCA66"/>
<stop offset="1" stop-color="#FFCA66"/>
</linearGradient>
</defs>
</svg>
