<svg width="216" height="216" viewBox="0 0 216 216" fill="none" xmlns="http://www.w3.org/2000/svg">
<g clip-path="url(#clip0_1_2)">
<path d="M128.25 1.62L136.35 3.42L142.92 5.76L148.23 8.46L152.28 11.34L155.34 14.4L157.59 17.46L159.03 20.43L159.93 23.13L160.29 25.47L160.47 27.27L160.38 28.44V76.5L159.93 82.17L158.76 87.12L156.87 91.26L154.53 94.68L151.83 97.47L148.86 99.72L145.71 101.43L142.56 102.69L139.59 103.59L136.89 104.22L134.55 104.58L132.66 104.76H78.93L72.72 105.21L67.41 106.47L62.91 108.45L59.22 110.88L56.25 113.76L53.82 116.91L52.02 120.15L50.67 123.48L49.77 126.63L49.14 129.51L48.78 131.94L48.6 133.83V161.37H28.53L26.64 161.1L24.12 160.47L21.24 159.39L18.09 157.77L14.85 155.43L11.61 152.19L8.46 148.05L5.58 142.74L3.06 136.17L1.17 128.25L-0.0900009 118.8L-0.540001 107.73L-9.27597e-07 96.75L1.44 87.39L3.6 79.56L6.48 73.17L9.72 68.04L13.32 64.08L17.1 61.11L20.88 58.95L24.48 57.51L27.72 56.61L30.6 56.16L32.76 56.07H34.2L34.74 56.16H108.18V48.69H55.62L55.53 23.94L55.35 20.61L55.8 17.55L56.79 14.76L58.32 12.24L60.57 9.9L63.36 7.83L66.78 6.03L70.74 4.41L75.33 3.06L80.55 1.98L86.31 1.08L92.7 0.54L99.63 0.18L107.19 0L118.62 0.45L128.25 1.62ZM71.55 19.44L69.48 22.41L68.76 26.1L69.48 29.79L71.55 32.85L74.52 34.83L78.21 35.64L81.9 34.83L84.87 32.85L86.94 29.79L87.66 26.1L86.94 22.41L84.87 19.44L81.9 17.46L78.21 16.65L74.52 17.46L71.55 19.44ZM189.36 54.99L191.88 55.53L194.76 56.61L197.91 58.23L201.15 60.66L204.39 63.81L207.54 68.04L210.42 73.35L212.94 79.92L214.83 87.84L216.09 97.2L216.54 108.27L216 119.34L214.56 128.7L212.4 136.44L209.52 142.83L206.28 147.96L202.68 152.01L198.9 154.98L195.12 157.14L191.52 158.58L188.28 159.39L185.4 159.84L183.24 160.02L181.8 159.93H107.82V167.31H160.38L160.47 192.15L160.65 195.39L160.2 198.45L159.21 201.24L157.68 203.85L155.43 206.1L152.64 208.26L149.22 210.06L145.26 211.59L140.67 212.94L135.45 214.11L129.69 214.92L123.3 215.55L116.37 215.91L108.81 216L97.38 215.64L87.75 214.38L79.65 212.58L73.08 210.33L67.77 207.63L63.72 204.66L60.66 201.6L58.41 198.54L56.97 195.57L56.07 192.87L55.71 190.62L55.53 188.82L55.62 187.65V139.59L56.07 133.83L57.24 128.97L59.13 124.83L61.47 121.41L64.17 118.53L67.14 116.37L70.29 114.57L73.44 113.31L76.41 112.41L79.11 111.87L81.45 111.51L83.34 111.33L84.51 111.24H137.07L143.28 110.79L148.59 109.53L153.09 107.64L156.78 105.12L159.75 102.24L162.18 99.09L163.98 95.85L165.33 92.61L166.23 89.46L166.86 86.58L167.22 84.06L167.4 82.17V54.63H186.21L187.47 54.72L189.36 54.99ZM131.13 183.24L129.06 186.21L128.34 189.9L129.06 193.59L131.13 196.56L134.1 198.63L137.79 199.35L141.48 198.63L144.45 196.56L146.52 193.59L147.24 189.9L146.52 186.21L144.45 183.24L141.48 181.17L137.79 180.45L134.1 181.17L131.13 183.24Z" fill="#FFCA66"/>
</g>
<defs>
<clipPath id="clip0_1_2">
<rect width="216" height="216" fill="white"/>
</clipPath>
</defs>
</svg>
