<svg width="216" height="167" viewBox="0 0 216 167" fill="none" xmlns="http://www.w3.org/2000/svg">
<path d="M108 0C48.357 0 0 32.391 0 72.333C0 107.406 37.296 136.629 86.76 143.253V121.626C60.444 113.391 42.435 96.831 42.435 77.733C42.435 50.418 79.191 28.287 124.515 28.287C169.857 28.287 203.328 43.434 203.328 77.733C203.328 95.517 194.337 108.144 179.37 116.181C180.18 116.775 180.936 117.333 181.692 118.125C183.213 119.466 183.942 121.392 185.04 123.021C204.192 109.971 216 92.088 216 72.342C216 32.382 167.643 0 108 0ZM89.001 44.91V166.554L125.838 166.536L125.82 118.917H135.72C137.745 118.917 138.609 119.511 140.661 121.167C143.109 123.147 147.096 130.005 147.096 130.005L166.572 166.572L208.215 166.554L182.439 123.12C182.439 123.12 181.665 121.383 180.054 119.673C178.522 118.15 176.753 116.886 174.816 115.929C171.018 114.003 164.475 112.023 164.475 112.023C164.475 112.023 196.677 109.647 196.677 77.589C196.677 45.531 162.981 44.919 162.981 44.919L89.001 44.91ZM126.144 71.28L148.446 71.298C148.446 71.298 158.787 70.74 158.787 81.441C158.787 91.926 148.446 91.971 148.446 91.971H126.144V71.28ZM141.93 126.351C137.484 126.792 132.822 127.062 128.07 127.143V143.406C135.274 142.506 142.403 141.084 149.4 139.149L145.161 131.13C145.161 131.13 144.189 129.483 142.929 127.584C142.578 127.098 142.209 126.702 141.93 126.351Z" fill="#FFCA66"/>
</svg>
