<svg width="162" height="216" viewBox="0 0 162 216" fill="none" xmlns="http://www.w3.org/2000/svg">
<path d="M68.1781 215.862C47.9594 214.405 27.9758 209.315 15.72 202.502C8.73917 198.621 3.42072 193.852 1.33373 189.602L0.0920258 187.073V107.745V28.417L1.07458 26.422C5.46546 17.5073 19.4787 9.47073 39.0405 4.64869C45.6808 3.01171 55.267 1.38155 63.0876 0.559511C71.0733 -0.280112 92.2403 -0.152369 100.206 0.784762C121.378 3.27216 139.394 8.84082 150.496 16.3295C154.778 19.2175 159.171 23.8384 160.66 27.0192L161.936 29.7463L161.827 108.834L161.717 187.922L160.693 190.003C160.13 191.148 158.428 193.4 156.911 195.007C147.68 204.794 127.877 212.033 101.903 215.117C96.6092 215.746 73.6096 216.254 68.1781 215.862ZM105.438 147.889C105.36 147.686 102.338 144.993 98.7215 141.905C95.1051 138.816 91.9903 136.144 91.7999 135.967C91.6095 135.789 92.2777 135.161 93.2848 134.571C94.2918 133.981 96.2211 132.338 97.5723 130.922C101.524 126.778 103.388 121.66 103.388 114.956C103.388 108.357 101.377 103.032 97.35 98.9669C93.2913 94.8697 88.6311 93.1093 81.8446 93.1093C71.3838 93.1093 63.3499 99.2132 60.7857 109.109C59.9036 112.513 59.9084 119.391 60.7949 122.409C63.1074 130.282 69.4055 136 77.2437 137.342C79.8962 137.797 80.2555 137.993 82.0638 139.97C83.1386 141.145 85.344 143.49 86.9648 145.181L89.9117 148.257H97.7457C102.054 148.257 105.516 148.091 105.438 147.889ZM78.5723 125.954C76.6863 124.971 75.9733 124.207 74.8978 122.021C74.0672 120.332 73.9251 119.372 73.9158 115.381C73.9066 111.325 74.0356 110.449 74.9029 108.688C76.3219 105.806 78.2773 104.442 81.3022 104.223C85.5128 103.918 87.9433 105.984 89.2171 110.95C90.7788 117.039 89.0614 123.512 85.3144 125.661C83.3485 126.788 80.4162 126.915 78.5723 125.954ZM43.8484 137.256C52.0619 135.698 56.7244 130.922 56.7244 124.065C56.7244 117.982 53.7143 114.437 45.3948 110.723C40.6324 108.597 38.9074 107.263 38.9074 105.703C38.9074 104.411 40.5444 102.995 42.4502 102.639C44.3109 102.292 49.2461 103.149 52.1604 104.326L54.6034 105.313V99.9056V94.4979L51.952 93.9097C50.3133 93.5462 46.8701 93.3281 42.9374 93.3393C37.3668 93.3393 36.2761 93.475 34.1797 94.3075C28.0563 96.7384 25.1505 100.879 25.197 107.109C25.2405 112.94 28.3168 116.577 35.9731 119.85C40.4905 121.781 42.3012 123.251 42.3012 124.988C42.3012 128.68 36.1494 129.135 29.6363 125.924C27.8526 125.044 26.25 124.253 26.075 124.166C25.9 124.078 25.7569 126.604 25.7569 129.779C25.7569 135.526 25.763 135.553 26.8035 135.95C30.7217 137.439 39.3817 138.103 43.8484 137.256ZM137.749 131.925V127.046H130.325H122.902V110.29V93.5336H116.326H109.751V115.168V136.803H123.75H137.749V131.925ZM91.934 46.435C105 45.5288 114.795 43.8177 123.414 40.936C132 38.065 137.073 34.5912 138.207 30.8044C138.644 29.3451 138.613 28.7916 138.002 27.1917C135.263 20.0189 119.96 14.5081 96.5765 12.2737C86.5741 11.3177 68.3832 11.6276 58.846 12.9159C44.2937 14.8821 32.4837 18.5343 27.2325 22.6923C16.6099 31.104 27.8434 40.3557 53.9672 44.7102C65.2943 46.5984 79.9695 47.2651 91.934 46.435Z" fill="#FFCA66"/>
</svg>
